<?xml version="1.0" encoding="utf-8"?>
<!-- Generator: Adobe Illustrator 24.1.2, SVG Export Plug-In . SVG Version: 6.00 Build 0)  -->
<svg version="1.1" id="Слой_1" xmlns="http://www.w3.org/2000/svg" xmlns:xlink="http://www.w3.org/1999/xlink" x="0px" y="0px"
	 viewBox="0 0 461 480" style="enable-background:new 0 0 461 480;" xml:space="preserve">
<style type="text/css">
	.st0{fill:#FFE100;}
	.st1{fill:#008905;}
	.st2{fill:#93278F;}
	.st3{fill:#FF0000;}
	.st4{fill:#0000FF;}
</style>
<g>
	<path class="st0" d="M53.03,159.59c6.66-0.87,14.12-1.69,21.52-2.89c3.72-0.6,7.41-1.67,10.97-2.93c8.47-3,13.39-9.33,15.96-17.72
		c1.78-5.83,2.82-11.81,3.36-17.86c0.77-8.72,1.34-17.45,2.01-26.17c0.04-0.47,0.13-0.93,0.18-1.33c0.45,6.52,0.81,13.11,1.37,19.68
		c0.74,8.79,1.59,17.58,4.28,26.06c2.24,7.06,6.17,12.77,13,16.14c4.34,2.14,8.96,3.45,13.7,4.15c7.46,1.11,14.95,1.99,21.51,2.85
		c-3.79,0.41-8.53,0.87-13.27,1.44c-5.55,0.66-11.05,1.61-16.43,3.2c-9.8,2.9-15.92,9.34-18.77,19.08
		c-1.71,5.85-2.74,11.83-3.3,17.87c-0.75,8.03-1.29,16.09-1.9,24.14c-0.07,0.99-0.01,2-0.26,3.01c-0.12-1.8-0.24-3.6-0.37-5.39
		c-0.42-5.94-0.76-11.88-1.3-17.81c-0.64-7.12-1.61-14.18-3.5-21.12c-2.97-10.9-9.93-17.56-20.81-20.32
		c-6.21-1.58-12.53-2.48-18.88-3.15C58.81,160.16,55.51,159.84,53.03,159.59z"/>
</g>
<g>
	<path class="st1" d="M290.03,344.59c6.66-0.87,14.12-1.69,21.52-2.89c3.72-0.6,7.41-1.67,10.97-2.93c8.47-3,13.39-9.33,15.96-17.72
		c1.78-5.83,2.82-11.81,3.36-17.86c0.77-8.72,1.34-17.45,2.01-26.17c0.04-0.47,0.13-0.93,0.18-1.33c0.45,6.52,0.81,13.11,1.37,19.68
		c0.74,8.79,1.59,17.58,4.28,26.06c2.24,7.06,6.17,12.77,13,16.14c4.34,2.14,8.96,3.45,13.7,4.15c7.46,1.11,14.95,1.99,21.51,2.85
		c-3.79,0.41-8.53,0.87-13.27,1.44c-5.55,0.66-11.05,1.61-16.43,3.2c-9.8,2.9-15.92,9.34-18.77,19.08
		c-1.71,5.85-2.74,11.83-3.3,17.87c-0.75,8.03-1.29,16.09-1.9,24.14c-0.07,0.99-0.01,2-0.26,3.01c-0.12-1.8-0.24-3.6-0.37-5.39
		c-0.42-5.94-0.76-11.88-1.3-17.81c-0.64-7.12-1.61-14.18-3.5-21.12c-2.97-10.9-9.93-17.56-20.81-20.32
		c-6.21-1.58-12.53-2.48-18.88-3.15C295.81,345.16,292.51,344.84,290.03,344.59z"/>
</g>
<g>
	<path class="st2" d="M13,400.26c7.65-0.99,16.22-1.92,24.71-3.29c4.27-0.68,8.51-1.89,12.6-3.32c9.73-3.4,15.38-10.6,18.33-20.13
		c2.05-6.62,3.24-13.41,3.85-20.28c0.88-9.9,1.54-19.82,2.31-29.73c0.04-0.53,0.15-1.06,0.21-1.51c0.51,7.41,0.93,14.89,1.57,22.35
		c0.85,9.99,1.82,19.97,4.92,29.6c2.58,8.02,7.09,14.51,14.93,18.33c4.98,2.43,10.29,3.91,15.74,4.72
		c8.57,1.26,17.18,2.26,24.71,3.24c-4.35,0.46-9.8,0.99-15.24,1.63c-6.38,0.75-12.69,1.83-18.88,3.64
		c-11.26,3.29-18.28,10.6-21.56,21.67c-1.97,6.65-3.15,13.44-3.79,20.3c-0.86,9.13-1.48,18.27-2.18,27.41
		c-0.09,1.13-0.01,2.27-0.3,3.41c-0.14-2.04-0.28-4.08-0.42-6.13c-0.49-6.74-0.87-13.5-1.49-20.23c-0.74-8.09-1.85-16.11-4.02-23.98
		c-3.41-12.38-11.4-19.94-23.9-23.08c-7.13-1.79-14.39-2.81-21.69-3.58C19.64,400.91,15.86,400.55,13,400.26z"/>
</g>
<g>
	<path class="st3" d="M146,245.79c10.74-1.32,22.77-2.55,34.71-4.36c6-0.91,11.95-2.51,17.69-4.41c13.66-4.51,21.6-14.06,25.75-26.7
		c2.88-8.78,4.55-17.79,5.41-26.9c1.24-13.13,2.17-26.28,3.24-39.42c0.06-0.71,0.21-1.41,0.3-2c0.72,9.83,1.31,19.75,2.21,29.64
		c1.2,13.25,2.56,26.49,6.91,39.26c3.62,10.64,9.96,19.24,20.98,24.32c7,3.22,14.45,5.19,22.11,6.25c12.04,1.67,24.12,3,34.7,4.3
		c-6.11,0.61-13.76,1.31-21.4,2.16c-8.96,1-17.83,2.43-26.51,4.83c-15.81,4.37-25.68,14.06-30.28,28.74
		c-2.76,8.82-4.42,17.82-5.33,26.92c-1.21,12.1-2.08,24.24-3.06,36.36c-0.12,1.5-0.02,3.01-0.42,4.53c-0.2-2.71-0.39-5.42-0.6-8.13
		c-0.68-8.95-1.23-17.9-2.09-26.83c-1.04-10.72-2.6-21.37-5.65-31.81c-4.79-16.41-16.01-26.45-33.57-30.61
		c-10.02-2.38-20.21-3.73-30.46-4.75C155.33,246.66,150.01,246.17,146,245.79z"/>
</g>
<g>
	<path class="st4" d="M336.03,87.95c7.53-1.02,15.96-1.97,24.33-3.37c4.21-0.7,8.38-1.94,12.4-3.41
		c9.58-3.49,15.14-10.87,18.05-20.65c2.02-6.79,3.19-13.76,3.79-20.8c0.87-10.15,1.52-20.32,2.27-30.49
		c0.04-0.55,0.15-1.09,0.21-1.55c0.5,7.6,0.92,15.27,1.55,22.92c0.84,10.24,1.8,20.48,4.84,30.36c2.54,8.23,6.98,14.88,14.7,18.8
		c4.91,2.49,10.13,4.01,15.5,4.84c8.44,1.29,16.91,2.32,24.33,3.32c-4.28,0.47-9.65,1.01-15,1.67c-6.28,0.77-12.5,1.88-18.58,3.73
		c-11.08,3.38-18,10.88-21.22,22.22c-1.94,6.82-3.1,13.78-3.74,20.82c-0.85,9.36-1.46,18.74-2.14,28.12
		c-0.08,1.16-0.01,2.33-0.3,3.5c-0.14-2.09-0.27-4.19-0.42-6.28c-0.48-6.92-0.86-13.84-1.47-20.75c-0.73-8.29-1.83-16.52-3.96-24.6
		c-3.36-12.69-11.22-20.45-23.53-23.67c-7.02-1.84-14.16-2.89-21.35-3.67C342.57,88.62,338.84,88.25,336.03,87.95z"/>
</g>
</svg>
