<?xml version="1.0" encoding="UTF-8"?>
<svg id="_Слой_1" data-name="Слой_1" xmlns="http://www.w3.org/2000/svg" version="1.1" xmlns:xlink="http://www.w3.org/1999/xlink" viewBox="0 0 600 600">
  <!-- Generator: Adobe Illustrator 29.3.1, SVG Export Plug-In . SVG Version: 2.1.0 Build 151)  -->
  <defs>
    <linearGradient id="_Безымянный_градиент_441" data-name="Безымянный градиент 441" x1="137.916" y1="158.926" x2="460.386" y2="345.104" gradientTransform="translate(-117.263 307.122) rotate(-44.487)" gradientUnits="userSpaceOnUse">
      <stop offset="0" stop-color="#987654"/>
      <stop offset=".888" stop-color="#35170c"/>
    </linearGradient>
    <linearGradient id="_Безымянный_градиент_428" data-name="Безымянный градиент 428" x1="326.763" y1="57.264" x2="265.896" y2="51.939" gradientTransform="translate(-120.03 300.199) rotate(-43.329)" gradientUnits="userSpaceOnUse">
      <stop offset="0" stop-color="#000"/>
      <stop offset=".235" stop-color="#240f08"/>
      <stop offset=".374" stop-color="#35170c"/>
      <stop offset=".646" stop-color="#654130"/>
      <stop offset=".876" stop-color="#875f4a"/>
      <stop offset="1" stop-color="#946b54"/>
    </linearGradient>
    <linearGradient id="_Безымянный_градиент_5" data-name="Безымянный градиент 5" x1="395.645" y1="397.068" x2="289.068" y2="397.068" gradientTransform="translate(-117.263 307.122) rotate(-44.487)" gradientUnits="userSpaceOnUse">
      <stop offset="0" stop-color="#00941e"/>
      <stop offset="1" stop-color="#000"/>
    </linearGradient>
    <linearGradient id="_Безымянный_градиент_230" data-name="Безымянный градиент 230" x1="412.135" y1="362.539" x2="231.09" y2="411.05" gradientTransform="translate(-117.263 307.122) rotate(-44.487)" gradientUnits="userSpaceOnUse">
      <stop offset="0" stop-color="#00941e"/>
      <stop offset=".114" stop-color="#00801a"/>
      <stop offset=".538" stop-color="#003b0c"/>
      <stop offset=".844" stop-color="#001003"/>
      <stop offset="1" stop-color="#000"/>
    </linearGradient>
    <linearGradient id="_Безымянный_градиент_217" data-name="Безымянный градиент 217" x1="348.612" y1="323.711" x2="174.679" y2="424.131" gradientTransform="translate(-117.263 307.122) rotate(-44.487)" gradientUnits="userSpaceOnUse">
      <stop offset="0" stop-color="#00941e"/>
      <stop offset=".294" stop-color="#005611"/>
      <stop offset=".554" stop-color="#002708"/>
      <stop offset=".752" stop-color="#000a02"/>
      <stop offset=".866" stop-color="#000"/>
    </linearGradient>
    <linearGradient id="_Безымянный_градиент_208" data-name="Безымянный градиент 208" x1="387.078" y1="477.964" x2="111.114" y2="318.636" gradientTransform="translate(-117.263 307.122) rotate(-44.487)" gradientUnits="userSpaceOnUse">
      <stop offset="0" stop-color="#000"/>
      <stop offset=".397" stop-color="#00380b"/>
      <stop offset="1" stop-color="#00941e"/>
    </linearGradient>
    <linearGradient id="_Безымянный_градиент_198" data-name="Безымянный градиент 198" x1="301.667" y1="-115.66" x2="296.723" y2="-115.66" gradientTransform="translate(-117.263 307.122) rotate(-44.487)" gradientUnits="userSpaceOnUse">
      <stop offset="0" stop-color="#a1553d"/>
      <stop offset=".888" stop-color="#000"/>
    </linearGradient>
  </defs>
  <path d="M17.095,13.41l515.828,526.578-19.461-3.728L13.039,16.339s1.238.18,2.586-.708c1.447-.954,1.47-2.221,1.47-2.221Z" fill="url(#_Безымянный_градиент_441)"/>
  <path d="M217.473,194.22c1.82,2.086,3.305,4.494,3.429,7.096.289,6.048-6.133,10.58-11.122,13.917-6.663,4.456-13.723,10.627-22.715,6.76-3.392-1.459-6.101-3.869-8.513-6.391-7.942-8.306-15.607-16.81-23.654-25.053-10.583-10.842-21.164-21.685-31.722-32.545-17.372-17.869-34.716-35.762-51.74-53.879-7.211-7.674-14.367-15.39-21.358-23.214-6.788-7.597-2.165-16.233,3.95-21.613,0,0,1.803.972,3.386-.229,2.11-1.601,1.473-2.991,1.473-2.991,7.14-5.233,16.728-5.447,23.741,1.105,14.561,13.605,28.539,27.682,42.482,41.757,16.369,16.524,32.581,33.164,48.723,49.853,12.043,12.451,24.1,24.895,36.008,37.443,2.445,2.577,5.029,5.082,7.392,7.713.081.09.161.18.24.271Z" fill="url(#_Безымянный_градиент_428)"/>
  <path d="M532.576,542.687c-49.74-89.868-169.945-231.046-241.554-350.544-12.934-21.583,29.535-3.894,29.535-3.894,0,0-75.093-48.538-48.008-3.212,64.018,107.13,218.625,348.138,255.531,362.61,0,0,5.28-3.542,4.495-4.96Z" fill="url(#_Безымянный_градиент_5)"/>
  <path d="M538.903,558.225s-13.366-27.893,32.167,14.349c0,0-49.424-52.357-21.293-40.43,0,0-27.496-31.071-45.242-51.125-44.642-50.448-87.91-101.785-132.432-152.317-21.696-24.625-43.364-50.049-65.64-74.592-22.424-24.705-46.182-48.413-69.213-72.694-11.805-12.446-23.609-24.891-35.414-37.337-1.316-1.388-3.571-3.033-4.442-4.683,13.5,22.936,27.624,45.612,42.021,68.135,25.876,40.479,52.373,81.232,84.534,118.279,42.044,48.433,86.176,95.497,130.056,142.692,26.605,28.615,53.145,56.792,79.913,85.293.245.261,4.74,4.168,4.985,4.429Z" fill="url(#_Безымянный_градиент_230)"/>
  <path d="M532.512,548.431s10.103-10.186,10.103-10.186c-18.131-16.427-36.262-32.854-54.393-49.281-35.461-32.128-70.922-64.256-106.383-96.384-44.942-40.718-89.603-80.604-144.566-111.835-35.607-20.233-73.066-39.101-113.146-51.967,15.336,11.638,30.672,23.276,46.008,34.914,31.197,23.674,62.394,47.348,93.591,71.023,26.574,20.166,53.454,40.073,79.726,60.53,35.314,27.498,68.8,56.952,103.014,85.467,26.107,21.758,52.214,43.517,78.321,65.275l4.382,3.652,3.343-1.207Z" fill="url(#_Безымянный_градиент_217)"/>
  <path d="M534.822,554.602l2.483-9.42s-277.679-245.965-380.162-269.669c0,0-23.868,50.299,19.326,101.484,0,0-22.411-37.907-.176-69.754,0,0,105.829,43.696,358.529,247.359Z" fill="url(#_Безымянный_градиент_208)"/>
  <path d="M17.091,13.414c.078.064.132.15.147.258.032.232-.099.468-.224.667-.249.397-.575.76-.958,1.068-.403.325-.869.589-1.373.782-.414.158-.937.354-1.398.263-.092-.018-.18-.054-.247-.113-.164-.144-.13-.372-.022-.535.375-.57.876-1.076,1.461-1.494.558-.399,1.209-.756,1.927-.885.058-.01.116-.019.174-.027.138-.018.396-.078.512.017Z" fill="url(#_Безымянный_градиент_198)"/>
</svg>