<?xml version="1.0" encoding="UTF-8"?>
<svg id="_Слой_1" data-name="Слой_1" xmlns="http://www.w3.org/2000/svg" version="1.1" xmlns:xlink="http://www.w3.org/1999/xlink" viewBox="0 0 600 600">
  <!-- Generator: Adobe Illustrator 29.3.1, SVG Export Plug-In . SVG Version: 2.1.0 Build 151)  -->
  <defs>
    <linearGradient id="_Безымянный_градиент_441" data-name="Безымянный градиент 441" x1="147.827" y1="171.031" x2="451.121" y2="346.138" gradientTransform="translate(-245.087 432.678) rotate(-44.487) scale(1.634 1)" gradientUnits="userSpaceOnUse">
      <stop offset="0" stop-color="#987654"/>
      <stop offset=".888" stop-color="#35170c"/>
    </linearGradient>
    <linearGradient id="_Безымянный_градиент_428" data-name="Безымянный градиент 428" x1="330.775" y1="65.004" x2="275.635" y2="60.18" gradientTransform="translate(-311.703 480.854) rotate(-43.312) scale(1.909 1)" gradientUnits="userSpaceOnUse">
      <stop offset="0" stop-color="#000"/>
      <stop offset=".235" stop-color="#240f08"/>
      <stop offset=".374" stop-color="#35170c"/>
      <stop offset=".646" stop-color="#654130"/>
      <stop offset=".876" stop-color="#875f4a"/>
      <stop offset="1" stop-color="#946b54"/>
    </linearGradient>
    <linearGradient id="_Безымянный_градиент_5" data-name="Безымянный градиент 5" x1="400.004" y1="397.473" x2="287.793" y2="397.473" gradientTransform="translate(-422.181 1352.24) rotate(-64.129) scale(3.888 .861)" gradientUnits="userSpaceOnUse">
      <stop offset="0" stop-color="#00941e"/>
      <stop offset="1" stop-color="#000"/>
    </linearGradient>
    <linearGradient id="_Безымянный_градиент_230" data-name="Безымянный градиент 230" x1="412.771" y1="364.557" x2="224.898" y2="414.897" gradientTransform="translate(-415.939 600.498) rotate(-44.487) scale(2.391 1)" gradientUnits="userSpaceOnUse">
      <stop offset="0" stop-color="#00941e"/>
      <stop offset=".114" stop-color="#00801a"/>
      <stop offset=".538" stop-color="#003b0c"/>
      <stop offset=".844" stop-color="#001003"/>
      <stop offset="1" stop-color="#000"/>
    </linearGradient>
    <linearGradient id="_Безымянный_градиент_217" data-name="Безымянный градиент 217" x1="358.197" y1="323.221" x2="180.568" y2="425.775" gradientTransform="translate(-374.606 559.898) rotate(-44.487) scale(2.199 1)" gradientUnits="userSpaceOnUse">
      <stop offset="0" stop-color="#00941e"/>
      <stop offset=".294" stop-color="#005611"/>
      <stop offset=".554" stop-color="#002708"/>
      <stop offset=".752" stop-color="#000a02"/>
      <stop offset=".866" stop-color="#000"/>
    </linearGradient>
    <linearGradient id="_Безымянный_градиент_208" data-name="Безымянный градиент 208" x1="378.165" y1="478.016" x2="116.415" y2="326.895" gradientTransform="translate(-484.521 655.203) rotate(-44.487) scale(2.851 1.05)" gradientUnits="userSpaceOnUse">
      <stop offset="0" stop-color="#000"/>
      <stop offset=".397" stop-color="#00380b"/>
      <stop offset="1" stop-color="#00941e"/>
    </linearGradient>
    <linearGradient id="_Безымянный_градиент_198" data-name="Безымянный градиент 198" x1="325.928" y1="-100.655" x2="321.118" y2="-100.655" gradientTransform="translate(-267.483 454.676) rotate(-44.487) scale(1.65 1)" gradientUnits="userSpaceOnUse">
      <stop offset="0" stop-color="#a1553d"/>
      <stop offset=".888" stop-color="#000"/>
    </linearGradient>
  </defs>
  <path d="M45.696,6.192l485.336,533.074-23.421,1.017L39.641,11.256s1.508-.14,3.493-1.711c2.131-1.687,2.561-3.353,2.561-3.353Z" fill="url(#_Безымянный_градиент_441)"/>
  <path d="M245.861,174.927c1.63,2.185,2.64,4.974,1.636,8.628-2.333,8.496-13.475,17.736-22.05,24.653-11.45,9.237-24.239,21.09-35.212,19.473-4.14-.61-6.881-2.872-9.151-5.422-7.475-8.398-14.468-17.2-22.119-25.464-10.063-10.869-20.121-21.742-30.141-32.648-16.486-17.945-32.92-35.937-48.8-54.387-6.727-7.815-13.356-15.713-19.703-23.838-6.162-7.888,4.295-22.199,15.388-32.515,0,0,2.112.604,4.897-1.793,3.712-3.196,3.44-4.901,3.44-4.901,12.477-10.551,26.144-15.009,33.098-8.707,14.44,13.085,27.841,27.095,41.194,41.118,15.676,16.462,31.076,33.158,46.356,49.954,11.4,12.53,22.822,25.046,33.986,37.774,2.293,2.614,4.814,5.066,6.964,7.793.073.093.146.187.217.283Z" fill="url(#_Безымянный_градиент_428)"/>
  <path d="M561.064,547.307c-26.272-137.873-138.025-264.72-182.124-436.379-7.965-31.004,51.959-73.582,51.959-73.582,0,0-94.996,28.425-78.396,93.699,39.233,154.278,145.234,478.764,197.881,439.318,0,0,11.095-20.88,10.681-23.056Z" fill="url(#_Безымянный_градиент_5)"/>
  <path d="M515.374,578.462s-2.454-37.979,42.533,2.737c0,0-44.318-55.122-6.69-53.772,0,0-23.307-33.93-38.349-55.83-37.84-55.091-72.82-112.588-110.405-167.9-18.316-26.954-36.03-55.27-55.35-81.701-19.448-26.606-41.765-50.649-62.498-76.14-10.626-13.066-21.253-26.131-31.879-39.197-1.185-1.457-3.722-2.722-3.998-4.916,6.114,29.561,13.424,58.272,21.289,86.544,14.134,50.811,29.093,101.669,55.864,142.54,34.999,53.432,74.354,103.177,113.207,153.31,23.557,30.396,47.312,60.101,71.216,90.196.219.276,4.842,3.853,5.061,4.129Z" fill="url(#_Безымянный_градиент_230)"/>
  <path d="M525.386,547.315s21.638-21.94,21.638-21.94c-18.068-15.668-36.137-31.335-54.205-47.003-35.339-30.643-70.677-61.286-106.016-91.929-44.786-38.836-89.639-76.514-155.519-94.566-42.68-11.695-89.026-20.165-142.994-17.616,16.633,9.674,33.266,19.347,49.899,29.021,33.836,19.678,67.671,39.357,101.507,59.035,28.821,16.762,58.269,32.938,86.452,50.335,37.882,23.384,71.782,50.919,107.363,76.545,27.151,19.555,54.301,39.11,81.452,58.665,1.519,1.094,3.038,2.188,4.557,3.282,0,0,5.866-3.829,5.866-3.829Z" fill="url(#_Безымянный_градиент_217)"/>
  <path d="M558.208,560.718l13.132-20.327s-300.801-236.1-472.101-193.707c0,0-90.061,117.667-54.886,179.351,0,0-8.05-53.923,62.36-134.552,0,0,159.619-6.663,451.495,169.235Z" fill="url(#_Безымянный_градиент_208)"/>
  <path d="M45.787,6.175c.078.06.119.157.103.294-.035.296-.277.647-.501.947-.446.601-.978,1.179-1.564,1.704-.617.552-1.297,1.046-2,1.456-.578.337-1.306.757-1.862.78-.112.005-.211-.015-.277-.072-.162-.139-.045-.449.145-.698.662-.867,1.464-1.689,2.343-2.421.839-.698,1.783-1.372,2.738-1.764.077-.032.153-.061.23-.09.182-.067.529-.226.645-.137Z" fill="url(#_Безымянный_градиент_198)"/>
</svg>