<?xml version="1.0" encoding="UTF-8"?>
<svg xmlns="http://www.w3.org/2000/svg" version="1.1" xmlns:xlink="http://www.w3.org/1999/xlink" viewBox="0 0 600 600">
  <!-- Generator: Adobe Illustrator 29.3.1, SVG Export Plug-In . SVG Version: 2.1.0 Build 151)  -->
  <defs>
    <linearGradient id="_Безымянный_градиент_2" data-name="Безымянный градиент 2" x1="190.561" y1="212.474" x2="391.833" y2="328.678" gradientTransform="translate(-382.688 541.599) rotate(-53.091) scale(2.127 1.214)" gradientUnits="userSpaceOnUse">
      <stop offset="0" stop-color="#c09054"/>
      <stop offset=".134" stop-color="#bc8a50"/>
      <stop offset=".31" stop-color="#b07946"/>
      <stop offset=".51" stop-color="#9e5e36"/>
      <stop offset=".727" stop-color="#85381f"/>
      <stop offset=".888" stop-color="#6f170c"/>
    </linearGradient>
    <linearGradient id="_Безымянный_градиент_470" data-name="Безымянный градиент 470" x1="322.981" y1="128.64" x2="291.374" y2="125.875" gradientTransform="translate(-624.606 725.84) rotate(-50.427) scale(3.057 1.836)" gradientUnits="userSpaceOnUse">
      <stop offset="0" stop-color="#000"/>
      <stop offset=".126" stop-color="#240804"/>
      <stop offset=".29" stop-color="#4f1309"/>
      <stop offset=".374" stop-color="#60170c"/>
      <stop offset=".614" stop-color="#863810"/>
      <stop offset=".864" stop-color="#a85614"/>
      <stop offset="1" stop-color="#b56216"/>
    </linearGradient>
    <linearGradient id="_Безымянный_градиент_475" data-name="Безымянный градиент 475" x1="375.556" y1="421.356" x2="220.116" y2="463.006" gradientTransform="translate(-650.088 627.93) rotate(-48.451) scale(3.114 1.349)" gradientUnits="userSpaceOnUse">
      <stop offset=".104" stop-color="#00ae00"/>
      <stop offset=".214" stop-color="#00a602"/>
      <stop offset=".382" stop-color="#00910b"/>
      <stop offset=".584" stop-color="#006f18"/>
      <stop offset=".656" stop-color="#00621e"/>
    </linearGradient>
    <linearGradient id="_Безымянный_градиент_477" data-name="Безымянный градиент 477" x1="335.174" y1="333.801" x2="189.769" y2="417.75" gradientTransform="translate(-652.594 777.259) rotate(-52.625) scale(3.295 1.315)" gradientUnits="userSpaceOnUse">
      <stop offset=".137" stop-color="#00ae00"/>
      <stop offset=".259" stop-color="#00a304"/>
      <stop offset=".469" stop-color="#00870f"/>
      <stop offset=".7" stop-color="#00621e"/>
    </linearGradient>
    <linearGradient id="_Безымянный_градиент_103" data-name="Безымянный градиент 103" x1="376.003" y1="357.689" x2="278.506" y2="357.689" gradientTransform="translate(-596.5 1109.591) rotate(-58.304) scale(3.869 1.255)" gradientUnits="userSpaceOnUse">
      <stop offset=".228" stop-color="#00ae00"/>
      <stop offset=".666" stop-color="#007815"/>
      <stop offset=".892" stop-color="#00621e"/>
    </linearGradient>
    <linearGradient id="_Безымянный_градиент_104" data-name="Безымянный градиент 104" x1="64.477" y1="442.802" x2="485.791" y2="442.802" gradientTransform="translate(75.969 52.178) rotate(-11.879) scale(1.054 1.03) skewX(-19.827)" gradientUnits="userSpaceOnUse">
      <stop offset=".169" stop-color="#00ae00"/>
      <stop offset=".337" stop-color="#009d06"/>
      <stop offset=".666" stop-color="#007117"/>
      <stop offset=".777" stop-color="#00621e"/>
    </linearGradient>
    <linearGradient id="_Безымянный_градиент_474" data-name="Безымянный градиент 474" x1="316.496" y1="-7.185" x2="313.018" y2="-7.185" gradientTransform="translate(-377.149 558.865) rotate(-52.84) scale(2.132 1.143)" gradientUnits="userSpaceOnUse">
      <stop offset="0" stop-color="#be8d52"/>
      <stop offset=".888" stop-color="#883d22"/>
    </linearGradient>
  </defs>
  <g id="_Тень" data-name="Тень">
    <path d="M157.589,20.434l361.488,427.958-17.224,2.304L153.176,25.151s1.109-.212,2.556-1.682c1.554-1.579,1.857-3.035,1.857-3.035Z" fill="#d3d3d3"/>
    <path d="M352.984,208.672c1.879,5.646,2.525,11.768.9,17.271-2.486,8.421-10.051,14.39-16.037,20.075-7.915,7.518-18.859,15.09-31.005,13.105-17.149-2.804-37.075-31.894-47.224-44.56-17.105-21.347-34.142-42.751-50.814-64.452-13.086-17.034-25.947-34.248-38.44-51.737-11.89-16.645-7.393-31.215,5.46-45.581,0,0,1.336,1.409,3.563-.573,3.128-2.784,1.664-3.972,1.666-3.974,8.823-9.183,25.513-14.718,36.292-6.082,15.335,12.286,28.493,32.292,41.337,47.338,19.409,22.737,38.436,45.812,57.214,69.095,11.536,14.304,25.731,27.254,34.392,43.754,1.045,1.991,1.965,4.12,2.697,6.32Z" fill="#d3d3d3"/>
    <path d="M563.083,499.63c-6.228-16.216-16.309-33.267-27.021-54.26-26.947-52.81-51.615-107.64-78.359-160.636-13.033-25.826-25.555-52.859-39.375-78.269-13.912-25.578-30.117-48.993-45.054-73.633-7.656-12.629-15.312-25.258-22.968-37.888-.854-1.408-2.75-2.727-2.881-4.752,3.592,27.438,8.131,54.175,13.111,80.544,8.95,47.392,18.529,94.879,37.524,133.975,24.832,51.111,53.137,99.125,81.043,147.463,16.92,29.307,33.634,51.759,33.634,51.759,17.565,9.484,71.981,50.278,71.981,50.278,0,0-16.141-40.277-21.634-54.58Z" fill="#d3d3d3"/>
    <path d="M526.328,500.225s18.524-22.873,18.524-22.873c-13.999-14.011-27.997-28.021-41.996-42.032-27.378-27.401-54.739-54.821-82.133-82.204-29.865-29.853-62.425-56.291-100.729-72.423-31.044-13.074-63.492-20.264-95.764-26.262-30.525-5.673-60.763-12.491-91.01-8.208,4.51-.639,20.501,10.421,25.091,12.579,73.079,34.369,144.381,78.244,212.009,124.046,29.759,20.155,56.104,44.629,83.896,67.127,21.208,17.168,42.415,34.336,63.623,51.504,1.186.96,2.373,1.921,3.559,2.881l4.93-4.137Z" fill="#d3d3d3"/>
    <path d="M561.697,496.964c-65.465-155.946-120.168-370.211-109.597-399.385,9.239-25.499,68.016-20.916,68.016-20.916,0,0-97.926-37.408-107.456,18.924-9.792,57.884,99.775,425.239,140.222,414.976,0,0,9.521-11.916,8.815-13.599Z" fill="#d3d3d3"/>
    <path d="M512.736,503.932l8.668-7.1s-168.864-181.429-319.704-114.719c0,0-51.415,67.187-37.612,125.268,0,0,20.486-68.743,31.637-82.477,0,0,32.808-87.148,317.011,79.028Z" fill="#d3d3d3"/>
    <path d="M157.608,20.445c.055.044.082.122.068.238-.03.249-.208.56-.372.827-.327.534-.715,1.055-1.141,1.537-.448.506-.94.969-1.447,1.363-.416.324-.942.728-1.337.789-.079.012-.15.003-.196-.039-.113-.104-.024-.371.115-.592.486-.772,1.07-1.517,1.707-2.193.608-.645,1.291-1.276,1.977-1.675.055-.032.11-.063.165-.092.13-.069.38-.228.461-.162Z" fill="#d3d3d3"/>
  </g>
  <g id="_Слой_1" data-name="Слой_1">
    <path d="M23.964,16.131l461.06,451.368-19.888,4.13L19.247,21.85s1.274-.338,2.829-2.126c1.669-1.921,1.889-3.593,1.889-3.593Z" fill="url(#_Безымянный_градиент_2)"/>
    <path d="M269.231,211.439c2.71,6.211,4.025,13.068,2.633,19.429-2.129,9.733-10.41,17.146-16.873,24.098-8.547,9.193-20.623,18.717-34.978,17.552-20.269-1.648-46.188-32.741-59.192-46.148-21.917-22.596-43.761-45.264-65.204-68.299-16.832-18.081-33.418-36.386-49.599-55.033-15.401-17.748-11.489-34.605,2.192-51.971,0,0,1.688,1.474,4.105-.963,3.394-3.422,1.577-4.634,1.579-4.637,9.453-11.155,28.421-18.887,41.792-10.087,19.021,12.519,36.209,33.95,52.577,49.808,24.733,23.962,49.051,48.341,73.098,72.976,14.773,15.135,32.525,28.504,44.143,46.375,1.402,2.157,2.67,4.479,3.726,6.9Z" fill="url(#_Безымянный_градиент_470)"/>
    <path d="M541.073,521.474c-8.754-17.765-22.081-36.132-36.506-58.896-36.287-57.264-70.099-117.012-106.166-174.504-17.576-28.017-34.666-57.443-53.123-84.921-18.58-27.66-39.636-52.672-59.325-79.18-10.092-13.587-20.184-27.174-30.276-40.761-1.125-1.515-3.459-2.837-3.797-5.112,6.707,30.675,14.455,60.474,22.684,89.818,14.789,52.739,30.321,105.53,56.07,148.008,33.663,55.533,71.094,107.259,108.09,159.386,22.431,31.605,43.994,55.485,43.994,55.485,21.366,9.156,88.606,50.412,88.606,50.412,0,0-22.528-44.065-30.25-59.735Z" fill="url(#_Безымянный_градиент_475)"/>
    <path d="M498.238,525.404s19.519-27.478,19.519-27.478c-17.62-14.585-35.239-29.171-52.859-43.756-34.46-28.525-68.901-57.072-103.379-85.575-37.587-31.074-78.005-58.052-124.182-72.879-37.424-12.017-75.947-17.261-114.156-21.176-36.14-3.703-72.05-8.724-106.953-1.205,5.204-1.121,24.879,9.954,30.432,11.985,88.427,32.345,175.653,75.584,258.769,121.327,36.574,20.128,69.56,45.438,104.054,68.389,26.321,17.513,52.643,35.026,78.964,52.538,1.473.98,2.945,1.959,4.418,2.939l5.374-5.11Z" fill="url(#_Безымянный_градиент_477)"/>
    <path d="M539.211,518.586c-90.689-170.349-174.167-407.529-164.507-441.42,8.443-29.622,77.451-29.655,77.451-29.655,0,0-117.701-33.575-123.656,30.901-6.119,66.252,155.415,471.494,201.673,456.316,0,0,10.018-14.304,9.039-16.142Z" fill="url(#_Безымянный_градиент_103)"/>
    <path d="M482.717,530.797l9.464-8.788s-213.683-189.97-383.584-101.245c0,0-53.837,80.45-32.404,144.833,0,0,17.603-79.466,29.355-95.968,0,0,30.294-101.348,377.168,61.168Z" fill="url(#_Безымянный_градиент_104)"/>
    <path d="M23.988,16.142c.068.045.107.13.101.262-.012.284-.192.651-.358.967-.333.632-.738,1.255-1.191,1.837-.477.612-1.008,1.177-1.563,1.668-.456.403-1.032.906-1.488,1.01-.092.021-.175.017-.232-.027-.141-.107-.062-.417.08-.679.496-.915,1.109-1.808,1.791-2.628.651-.782,1.39-1.556,2.153-2.067.061-.041.123-.081.184-.118.146-.09.422-.291.523-.224Z" fill="url(#_Безымянный_градиент_474)"/>
  </g>
</svg>