<?xml version="1.0" encoding="UTF-8"?>
<svg id="_Слой_1" data-name="Слой_1" xmlns="http://www.w3.org/2000/svg" version="1.1" xmlns:xlink="http://www.w3.org/1999/xlink" viewBox="0 0 600 600">
  <!-- Generator: Adobe Illustrator 29.3.1, SVG Export Plug-In . SVG Version: 2.1.0 Build 151)  -->
  <defs>
    <linearGradient id="_Безымянный_градиент" data-name="Безымянный градиент" x1="190.593" y1="387.518" x2="391.876" y2="271.307" gradientTransform="translate(199.734 979.037) rotate(-53.091) scale(2.127 -1.214)" gradientUnits="userSpaceOnUse">
      <stop offset="0" stop-color="#c09054"/>
      <stop offset=".134" stop-color="#bc8a50"/>
      <stop offset=".31" stop-color="#b07946"/>
      <stop offset=".51" stop-color="#9e5e36"/>
      <stop offset=".727" stop-color="#85381f"/>
      <stop offset=".888" stop-color="#6f170c"/>
    </linearGradient>
    <linearGradient id="_Безымянный_градиент_2" data-name="Безымянный градиент 2" x1="322.982" y1="471.377" x2="291.376" y2="474.142" gradientTransform="translate(224.522 1427.626) rotate(-50.427) scale(3.057 -1.836)" gradientUnits="userSpaceOnUse">
      <stop offset="0" stop-color="#000"/>
      <stop offset=".126" stop-color="#240804"/>
      <stop offset=".29" stop-color="#4f1309"/>
      <stop offset=".374" stop-color="#60170c"/>
      <stop offset=".614" stop-color="#863810"/>
      <stop offset=".864" stop-color="#a85614"/>
      <stop offset="1" stop-color="#b56216"/>
    </linearGradient>
    <linearGradient id="_Безымянный_градиент_3" data-name="Безымянный градиент 3" x1="375.556" y1="178.486" x2="220.079" y2="136.826" gradientTransform="translate(-44.342 1164.773) rotate(-48.451) scale(3.114 -1.349)" gradientUnits="userSpaceOnUse">
      <stop offset=".104" stop-color="#00ae00"/>
      <stop offset=".214" stop-color="#00a602"/>
      <stop offset=".382" stop-color="#00910b"/>
      <stop offset=".584" stop-color="#006f18"/>
      <stop offset=".656" stop-color="#00621e"/>
    </linearGradient>
    <linearGradient id="_Безымянный_градиент_4" data-name="Безымянный градиент 4" x1="335.161" y1="266.222" x2="189.756" y2="182.273" gradientTransform="translate(-25.592 1256.205) rotate(-52.625) scale(3.295 -1.315)" gradientUnits="userSpaceOnUse">
      <stop offset=".137" stop-color="#00ae00"/>
      <stop offset=".259" stop-color="#00a304"/>
      <stop offset=".469" stop-color="#00870f"/>
      <stop offset=".7" stop-color="#00621e"/>
    </linearGradient>
    <linearGradient id="_Безымянный_градиент_5" data-name="Безымянный градиент 5" x1="375.974" y1="242.403" x2="278.485" y2="242.403" gradientTransform="translate(44.188 1505.226) rotate(-58.304) scale(3.869 -1.255)" gradientUnits="userSpaceOnUse">
      <stop offset=".228" stop-color="#00ae00"/>
      <stop offset=".666" stop-color="#007815"/>
      <stop offset=".892" stop-color="#00621e"/>
    </linearGradient>
    <linearGradient id="_Безымянный_градиент_6" data-name="Безымянный градиент 6" x1="64.469" y1="157.335" x2="485.608" y2="157.335" gradientTransform="translate(-19.95 703.879) rotate(-11.879) scale(1.054 -1.03) skewX(19.827)" gradientUnits="userSpaceOnUse">
      <stop offset=".169" stop-color="#00ae00"/>
      <stop offset=".337" stop-color="#009d06"/>
      <stop offset=".666" stop-color="#007117"/>
      <stop offset=".777" stop-color="#00621e"/>
    </linearGradient>
    <linearGradient id="_Безымянный_градиент_7" data-name="Безымянный градиент 7" x1="316.496" y1="607.185" x2="313.018" y2="607.185" gradientTransform="translate(169.401 973.118) rotate(-52.84) scale(2.132 -1.143)" gradientUnits="userSpaceOnUse">
      <stop offset="0" stop-color="#be8d52"/>
      <stop offset=".888" stop-color="#883d22"/>
    </linearGradient>
  </defs>
  <g id="_Слой_11" data-name="_Слой_1">
    <path d="M23.964,16.131l461.06,451.368-19.888,4.13L19.247,21.85s1.274-.338,2.829-2.126c1.669-1.921,1.889-3.593,1.889-3.593h0Z" fill="url(#_Безымянный_градиент)"/>
    <path d="M269.231,211.439c2.71,6.211,4.025,13.068,2.633,19.429-2.129,9.733-10.41,17.146-16.873,24.098-8.547,9.193-20.623,18.717-34.978,17.552-20.269-1.648-46.188-32.741-59.192-46.148-21.917-22.596-43.761-45.264-65.204-68.299-16.832-18.081-33.418-36.386-49.599-55.033-15.401-17.748-11.489-34.605,2.192-51.971,0,0,1.688,1.474,4.105-.963,3.394-3.422,1.577-4.634,1.579-4.637,9.453-11.155,28.421-18.887,41.792-10.087,19.021,12.519,36.209,33.95,52.577,49.808,24.733,23.962,49.051,48.341,73.098,72.976,14.773,15.135,32.525,28.504,44.143,46.375,1.402,2.157,2.67,4.479,3.726,6.9h0Z" fill="url(#_Безымянный_градиент_2)"/>
    <path d="M541.073,521.474c-8.754-17.765-22.081-36.132-36.506-58.896-36.287-57.264-70.099-117.012-106.166-174.504-17.576-28.017-34.666-57.443-53.123-84.921-18.58-27.66-39.636-52.672-59.325-79.18-10.092-13.587-20.184-27.174-30.276-40.761-1.125-1.515-3.459-2.837-3.797-5.112,6.707,30.675,14.455,60.474,22.684,89.818,14.789,52.739,30.321,105.53,56.07,148.008,33.663,55.533,71.094,107.259,108.09,159.386,22.431,31.605,43.994,55.485,43.994,55.485,21.366,9.156,88.606,50.412,88.606,50.412,0,0-22.528-44.065-30.25-59.735h0Z" fill="url(#_Безымянный_градиент_3)"/>
    <path d="M498.238,525.404l19.519-27.478c-17.62-14.585-35.239-29.171-52.859-43.756-34.46-28.525-68.901-57.072-103.379-85.575-37.587-31.074-78.005-58.052-124.182-72.879-37.424-12.017-75.947-17.261-114.156-21.176-36.14-3.703-72.05-8.724-106.953-1.205,5.204-1.121,24.879,9.954,30.432,11.985,88.427,32.345,175.653,75.584,258.769,121.327,36.574,20.128,69.56,45.438,104.054,68.389,26.321,17.513,52.643,35.026,78.964,52.538,1.473.98,2.945,1.959,4.418,2.939l5.374-5.11h-.001Z" fill="url(#_Безымянный_градиент_4)"/>
    <path d="M539.211,518.586c-90.689-170.349-174.167-407.529-164.507-441.42,8.443-29.622,77.451-29.655,77.451-29.655,0,0-117.701-33.575-123.656,30.901-6.119,66.252,155.415,471.494,201.673,456.316,0,0,10.018-14.304,9.039-16.142Z" fill="url(#_Безымянный_градиент_5)"/>
    <path d="M482.717,530.797l9.464-8.788s-213.683-189.97-383.584-101.245c0,0-53.837,80.45-32.404,144.833,0,0,17.603-79.466,29.355-95.968,0,0,30.294-101.348,377.168,61.168h.001Z" fill="url(#_Безымянный_градиент_6)"/>
    <path d="M23.988,16.142c.068.045.107.13.101.262-.012.284-.192.651-.358.967-.333.632-.738,1.255-1.191,1.837-.477.612-1.008,1.177-1.563,1.668-.456.403-1.032.906-1.488,1.01-.092.021-.175.017-.232-.027-.141-.107-.062-.417.08-.679.496-.915,1.109-1.808,1.791-2.628.651-.782,1.39-1.556,2.153-2.067.061-.041.123-.081.184-.118.146-.09.422-.291.523-.224h0Z" fill="url(#_Безымянный_градиент_7)"/>
  </g>
</svg>