<?xml version="1.0" encoding="UTF-8"?>
<svg id="_Слой_1" data-name="Слой_1" xmlns="http://www.w3.org/2000/svg" version="1.1" xmlns:xlink="http://www.w3.org/1999/xlink" viewBox="0 0 600 600">
  <!-- Generator: Adobe Illustrator 29.3.1, SVG Export Plug-In . SVG Version: 2.1.0 Build 151)  -->
  <defs>
    <linearGradient id="_Безымянный_градиент_441" data-name="Безымянный градиент 441" x1="230.631" y1="220.733" x2="431.903" y2="336.938" gradientUnits="userSpaceOnUse">
      <stop offset="0" stop-color="#987654"/>
      <stop offset=".888" stop-color="#35170c"/>
    </linearGradient>
    <linearGradient id="_Безымянный_градиент_428" data-name="Безымянный градиент 428" x1="357.215" y1="138.628" x2="324.357" y2="135.753" gradientTransform="translate(2.877 -6.878) rotate(1.158)" gradientUnits="userSpaceOnUse">
      <stop offset="0" stop-color="#000"/>
      <stop offset=".235" stop-color="#240f08"/>
      <stop offset=".374" stop-color="#35170c"/>
      <stop offset=".646" stop-color="#654130"/>
      <stop offset=".876" stop-color="#875f4a"/>
      <stop offset="1" stop-color="#946b54"/>
    </linearGradient>
    <linearGradient id="_Безымянный_градиент_5" data-name="Безымянный градиент 5" x1="401.531" y1="380.73" x2="305.403" y2="380.73" gradientUnits="userSpaceOnUse">
      <stop offset="0" stop-color="#00941e"/>
      <stop offset="1" stop-color="#000"/>
    </linearGradient>
    <linearGradient id="_Безымянный_градиент_230" data-name="Безымянный градиент 230" x1="419.087" y1="352.807" x2="262.743" y2="394.699" gradientUnits="userSpaceOnUse">
      <stop offset="0" stop-color="#00941e"/>
      <stop offset=".114" stop-color="#00801a"/>
      <stop offset=".538" stop-color="#003b0c"/>
      <stop offset=".844" stop-color="#001003"/>
      <stop offset="1" stop-color="#000"/>
    </linearGradient>
    <linearGradient id="_Безымянный_градиент_217" data-name="Безымянный градиент 217" x1="369.776" y1="326.415" x2="226.545" y2="409.11" gradientUnits="userSpaceOnUse">
      <stop offset="0" stop-color="#00941e"/>
      <stop offset=".294" stop-color="#005611"/>
      <stop offset=".554" stop-color="#002708"/>
      <stop offset=".752" stop-color="#000a02"/>
      <stop offset=".866" stop-color="#000"/>
    </linearGradient>
    <linearGradient id="_Безымянный_градиент_208" data-name="Безымянный градиент 208" x1="376.276" y1="436.907" x2="198.677" y2="334.37" gradientUnits="userSpaceOnUse">
      <stop offset="0" stop-color="#000"/>
      <stop offset=".397" stop-color="#00380b"/>
      <stop offset="1" stop-color="#00941e"/>
    </linearGradient>
    <linearGradient id="_Безымянный_градиент_198" data-name="Безымянный градиент 198" x1="352.379" y1="16.099" x2="348.901" y2="16.099" gradientUnits="userSpaceOnUse">
      <stop offset="0" stop-color="#a1553d"/>
      <stop offset=".888" stop-color="#000"/>
    </linearGradient>
  </defs>
  <path d="M352.383,16.161l-39.5,526.926-7.167-11.056L348.901,15.883s.487.672,1.598.811c1.193.149,1.884-.533,1.884-.533Z" fill="url(#_Безымянный_градиент_441)"/>
  <path d="M349.775,207.867c-.262,1.984-.854,3.988-2.191,5.469-3.108,3.441-8.564,2.944-12.704,2.457-5.529-.65-12.164-.547-14.325-6.828-.815-2.369-.799-4.942-.582-7.439.714-8.221,1.666-16.423,2.298-24.658.831-10.832,1.664-21.663,2.516-32.493,1.402-17.82,2.831-35.639,4.531-53.433.72-7.537,1.488-15.071,2.393-22.589.878-7.299,7.688-9.879,13.454-9.988,0,0,.328,1.367,1.718,1.444,1.853.102,2.298-.953,2.298-.953,6.17.447,10.801,4.772,10.589,11.604-.439,14.186-1.407,28.359-2.389,42.515-1.153,16.619-2.443,33.229-3.792,49.834-1.006,12.388-2.003,24.779-3.125,37.157-.23,2.542-.357,5.109-.656,7.642-.01.086-.021.173-.032.26Z" fill="url(#_Безымянный_градиент_428)"/>
  <path d="M311.272,544.402c24.778-72.185,43.889-205.074,74.259-303.593,5.485-17.794,16,11.556,16,11.556,0,0-9.333-61.333-20.889-24-27.312,88.239-83.769,291.654-74.148,316.667,0,0,4.387.51,4.778-.63Z" fill="url(#_Безымянный_градиент_5)"/>
  <path d="M305.918,555.829s8.667-21.444,7.454,22.75c0,0,4.806-51.528,11.657-31.972,0,0,3.716-29.729,6.114-48.916,6.034-48.269,13.192-96.386,19.327-144.645,2.99-23.517,6.422-47.458,9.094-71.199,2.69-23.898,4.217-47.869,6.394-71.817,1.116-12.275,2.232-24.549,3.348-36.824.124-1.369-.055-3.312.42-4.619-5.944,18.796-11.455,37.739-16.755,56.725-9.525,34.123-18.905,68.683-23.629,103.841-6.176,45.963-10.635,92.144-15.283,138.281-2.818,27.973-5.432,55.677-8.112,83.664-.025.256-.003,4.475-.028,4.731Z" fill="url(#_Безымянный_градиент_230)"/>
  <path d="M308.161,547.513s10.222-.889,10.222-.889c.272-17.383.543-34.765.815-52.148.531-33.997,1.062-67.995,1.594-101.992.673-43.087,1.033-85.589-8.102-128.132-5.918-27.561-13.441-55.234-25.417-80.839.981,13.469,1.961,26.938,2.942,40.407l5.985,82.198c1.699,23.339,3.682,46.678,5.083,70.037,1.883,31.397,1.856,63.018,2.675,94.462.625,23.993,1.251,47.987,1.876,71.98l.105,4.027,2.222.889Z" fill="url(#_Безымянный_градиент_217)"/>
  <path d="M305.938,551.957l6.222-4s1.148-263.148-34.407-323.593c0,0-38.222,16.444-45.333,64.444,0,0,9.778-31.111,37.333-38.222,0,0,26.407,72.926,36.185,301.37Z" fill="url(#_Безымянный_градиент_208)"/>
  <path d="M352.379,16.161c.002.071-.018.143-.069.209-.11.142-.298.21-.463.261-.331.102-.678.149-1.024.14-.364-.009-.726-.081-1.066-.208-.28-.105-.631-.241-.799-.504-.034-.053-.056-.113-.056-.176,0-.155.138-.263.277-.303.483-.138.99-.182,1.49-.14.477.04.975.147,1.383.409.033.021.065.043.096.066.075.054.228.14.232.246Z" fill="url(#_Безымянный_градиент_198)"/>
</svg>